<?xml version="1.0" encoding="UTF-8" standalone="no"?>
<!DOCTYPE svg PUBLIC "-//W3C//DTD SVG 1.1//EN" "http://www.w3.org/Graphics/SVG/1.1/DTD/svg11.dtd">
<svg width="100%" height="100%" viewBox="0 0 40 40" version="1.1" xmlns="http://www.w3.org/2000/svg" xmlns:xlink="http://www.w3.org/1999/xlink" xml:space="preserve" xmlns:serif="http://www.serif.com/" style="fill-rule:evenodd;clip-rule:evenodd;stroke-linejoin:round;stroke-miterlimit:2;">
    <rect x="0" y="0" width="40" height="40" style="fill:#ffffff;"/>
    <path d="M21.933,22.921C15.112,22.921 9.484,28.125 8.806,34.775C8.779,35.109 8.761,35.443 8.752,35.786L20,27.61L31.745,36.148L27.445,22.93L21.933,22.93L21.933,22.921Z" style="fill:#903f98;fill-rule:nonzero;"/>
    <path d="M24.21,20.644C20.47,20.644 17.028,21.981 14.353,24.204C16.549,22.804 19.142,21.981 21.933,21.981L27.752,21.981L29.586,20.644L24.21,20.644Z" style="fill:#903f98;fill-rule:nonzero;"/>
    <path d="M26.487,18.359C22.259,18.359 18.365,19.849 15.311,22.334C17.877,20.671 20.931,19.696 24.21,19.696L30.887,19.696L32.73,18.359L26.487,18.359Z" style="fill:#903f98;fill-rule:nonzero;"/>
    <path d="M28.773,16.082C24.048,16.082 19.702,17.735 16.269,20.482C19.214,18.557 22.719,17.419 26.496,17.419L34.031,17.419L35.874,16.082L28.773,16.082Z" style="fill:#903f98;fill-rule:nonzero;"/>
    <path d="M31.049,13.805C30.489,13.805 29.929,13.832 29.378,13.877C24.834,14.212 20.669,15.919 17.29,18.575C20.587,16.407 24.535,15.142 28.773,15.142L37.166,15.142L39,13.805L31.049,13.805Z" style="fill:#903f98;fill-rule:nonzero;"/>
    <path d="M24.508,13.805L24.49,13.805L20,0L15.519,13.805L1,13.805L12.474,22.144C15.447,18.196 19.648,15.233 24.508,13.805Z" style="fill:#903f98;fill-rule:nonzero;"/>
</svg>
